<svg xmlns="http://www.w3.org/2000/svg" viewBox="0 0 32 32" width="32" height="32">
  <rect x="0" y="0" width="16" height="16" fill="#00ff9d"/>
  <rect x="16" y="0" width="16" height="16" fill="#34d399"/>
  <rect x="0" y="16" width="16" height="16" fill="#14b8a6"/>
  <rect x="16" y="16" width="16" height="16" fill="#22d3ee"/>
  <path d="M16 4c-1.5 0-3 0.5-4 1.5-2 2-2.5 5-1.5 7.5l-3.5 3.5c-0.5 0.5-0.5 1.5 0 2l1.5 1.5c0.5 0.5 1.5 0.5 2 0l3.5-3.5c2.5 1 5.5 0.5 7.5-1.5 2-2 2.5-5 1.5-7.5l-3 3-2-0.5-0.5-2 3-3c-2.5-1-5.5-0.5-7.5 1.5z" fill="#000000"/>
  <circle cx="12" cy="22" r="1.5" fill="#000000"/>
  <circle cx="10" cy="24" r="1" fill="#000000"/>
</svg>