<svg xmlns="http://www.w3.org/2000/svg" viewBox="0 0 32 32" width="32" height="32">
  <circle cx="16" cy="16" r="15" fill="#0a0a12" stroke="#00ff9d" stroke-width="1"/>
  <path d="M16 6c-1.2 0-2.4 0.4-3.2 1.2-1.6 1.6-2 4-1.2 6l-2.8 2.8c-0.4 0.4-0.4 1.2 0 1.6l1.2 1.2c0.4 0.4 1.2 0.4 1.6 0l2.8-2.8c2 0.8 4.4 0.4 6-1.2 1.6-1.6 2-4 1.2-6l-2.4 2.4-1.6-0.4-0.4-1.6 2.4-2.4c-2-0.8-4.4-0.4-6 1.2z" fill="#00ff9d"/>
  <circle cx="11" cy="21" r="1.2" fill="#00ff9d"/>
  <circle cx="9.5" cy="23" r="0.8" fill="#00ff9d"/>
</svg>