<svg xmlns="http://www.w3.org/2000/svg" viewBox="0 0 32 32" width="32" height="32">
  <circle cx="16" cy="16" r="16" fill="#0d0d14"/>
  <g transform="translate(6, 5) scale(0.65)">
    <path d="M16 2C13.5 2 11.2 3 9.5 4.8C6.5 7.8 5.8 12.3 7.3 16L2.5 20.8C1.8 21.5 1.8 22.7 2.5 23.4L4.6 25.5C5.3 26.2 6.5 26.2 7.2 25.5L12 20.7C15.7 22.2 20.2 21.5 23.2 18.5C26.2 15.5 26.9 11 25.4 7.3L21 11.7L18.5 11.2L18 8.7L22.4 4.3C18.7 2.8 14.2 3.5 11.2 6.5" fill="none" stroke="#00ff9d" stroke-width="2" stroke-linecap="round"/>
    <circle cx="10" cy="22" r="2" fill="#00ff9d"/>
    <circle cx="7" cy="25" r="1.5" fill="#00ff9d"/>
  </g>
</svg>